# MagicaVoxel @ Ephtracy

# group
o 

# material
mtllib rattail.mtl
usemtl palette

# normals
vn -1 0 0
vn 1 0 0
vn 0 0 1
vn 0 0 -1
vn 0 -1 0
vn 0 1 0

# texcoords
vt 0.169922 0.5
vt 0.232422 0.5

# verts
v -0.2 1.5 -0.3
v -0.2 1.5 -0.5
v -0.2 1.6 -0.5
v -0.2 1.6 -0.8
v -0.2 1.6 -1.7
v -0.2 1.7 -1.7
v -0.2 1.7 -2.6
v -0.2 1.8 -1.7
v -0.2 1.8 -2.6
v -0.2 1.9 -0.5
v -0.2 1.9 -0.8
v -0.2 1.9 -1.7
v -0.2 2 -0.3
v -0.2 2 -0.5
v -0.1 1.4 -0.3
v -0.1 1.4 -0.4
v -0.1 1.5 -0.3
v -0.1 1.5 -0.4
v -0.1 1.5 -0.5
v -0.1 1.5 -0.8
v -0.1 1.5 -1.4
v -0.1 1.6 -0.5
v -0.1 1.6 -0.8
v -0.1 1.6 -1.4
v -0.1 1.6 -1.7
v -0.1 1.6 -2.4
v -0.1 1.7 -1.7
v -0.1 1.7 -2.4
v -0.1 1.7 -2.6
v -0.1 1.7 -3.5
v -0.1 1.8 -1.7
v -0.1 1.8 -2.4
v -0.1 1.8 -2.6
v -0.1 1.8 -3.5
v -0.1 1.9 -0.5
v -0.1 1.9 -0.8
v -0.1 1.9 -1.4
v -0.1 1.9 -1.7
v -0.1 1.9 -2.4
v -0.1 2 -0.3
v -0.1 2 -0.4
v -0.1 2 -0.5
v -0.1 2 -0.8
v -0.1 2 -1.4
v -0.1 2.1 -0.3
v -0.1 2.1 -0.4
v 0.1 1.4 -0.3
v 0.1 1.4 -0.4
v 0.1 1.5 -0.3
v 0.1 1.5 -0.4
v 0.1 1.5 -0.5
v 0.1 1.5 -0.8
v 0.1 1.5 -1.4
v 0.1 1.6 -0.5
v 0.1 1.6 -0.8
v 0.1 1.6 -1.4
v 0.1 1.6 -1.7
v 0.1 1.6 -2.4
v 0.1 1.7 -1.7
v 0.1 1.7 -2.4
v 0.1 1.7 -2.6
v 0.1 1.7 -3.5
v 0.1 1.8 -1.7
v 0.1 1.8 -2.4
v 0.1 1.8 -2.6
v 0.1 1.8 -3.5
v 0.1 1.9 -0.5
v 0.1 1.9 -0.8
v 0.1 1.9 -1.4
v 0.1 1.9 -1.7
v 0.1 1.9 -2.4
v 0.1 2 -0.3
v 0.1 2 -0.4
v 0.1 2 -0.5
v 0.1 2 -0.8
v 0.1 2 -1.4
v 0.1 2.1 -0.3
v 0.1 2.1 -0.4
v 0.2 1.5 -0.3
v 0.2 1.5 -0.5
v 0.2 1.6 -0.5
v 0.2 1.6 -0.8
v 0.2 1.6 -1.7
v 0.2 1.7 -1.7
v 0.2 1.7 -2.6
v 0.2 1.8 -1.7
v 0.2 1.8 -2.6
v 0.2 1.9 -0.5
v 0.2 1.9 -0.8
v 0.2 1.9 -1.7
v 0.2 2 -0.3
v 0.2 2 -0.5
v -0.2 1.5 -0.3
v -0.2 2 -0.3
v -0.1 1.4 -0.3
v -0.1 1.5 -0.3
v -0.1 2 -0.3
v -0.1 2.1 -0.3
v 0.1 1.4 -0.3
v 0.1 1.5 -0.3
v 0.1 2 -0.3
v 0.1 2.1 -0.3
v 0.2 1.5 -0.3
v 0.2 2 -0.3
v -0.1 1.4 -0.4
v -0.1 1.5 -0.4
v -0.1 2 -0.4
v -0.1 2.1 -0.4
v 0.1 1.4 -0.4
v 0.1 1.5 -0.4
v 0.1 2 -0.4
v 0.1 2.1 -0.4
v -0.2 1.5 -0.5
v -0.2 1.6 -0.5
v -0.2 1.9 -0.5
v -0.2 2 -0.5
v -0.1 1.5 -0.5
v -0.1 1.6 -0.5
v -0.1 1.9 -0.5
v -0.1 2 -0.5
v 0.1 1.5 -0.5
v 0.1 1.6 -0.5
v 0.1 1.9 -0.5
v 0.1 2 -0.5
v 0.2 1.5 -0.5
v 0.2 1.6 -0.5
v 0.2 1.9 -0.5
v 0.2 2 -0.5
v -0.1 1.5 -1.4
v -0.1 1.6 -1.4
v -0.1 1.9 -1.4
v -0.1 2 -1.4
v 0.1 1.5 -1.4
v 0.1 1.6 -1.4
v 0.1 1.9 -1.4
v 0.1 2 -1.4
v -0.2 1.6 -1.7
v -0.2 1.7 -1.7
v -0.2 1.8 -1.7
v -0.2 1.9 -1.7
v -0.1 1.6 -1.7
v -0.1 1.7 -1.7
v -0.1 1.8 -1.7
v -0.1 1.9 -1.7
v 0.1 1.6 -1.7
v 0.1 1.7 -1.7
v 0.1 1.8 -1.7
v 0.1 1.9 -1.7
v 0.2 1.6 -1.7
v 0.2 1.7 -1.7
v 0.2 1.8 -1.7
v 0.2 1.9 -1.7
v -0.1 1.6 -2.4
v -0.1 1.7 -2.4
v -0.1 1.8 -2.4
v -0.1 1.9 -2.4
v 0.1 1.6 -2.4
v 0.1 1.7 -2.4
v 0.1 1.8 -2.4
v 0.1 1.9 -2.4
v -0.2 1.7 -2.6
v -0.2 1.8 -2.6
v -0.1 1.7 -2.6
v -0.1 1.8 -2.6
v 0.1 1.7 -2.6
v 0.1 1.8 -2.6
v 0.2 1.7 -2.6
v 0.2 1.8 -2.6
v -0.1 1.7 -3.5
v -0.1 1.8 -3.5
v 0.1 1.7 -3.5
v 0.1 1.8 -3.5
v -0.1 1.4 -0.3
v 0.1 1.4 -0.3
v -0.1 1.4 -0.4
v 0.1 1.4 -0.4
v -0.2 1.5 -0.3
v -0.1 1.5 -0.3
v 0.1 1.5 -0.3
v 0.2 1.5 -0.3
v -0.1 1.5 -0.4
v 0.1 1.5 -0.4
v -0.2 1.5 -0.5
v -0.1 1.5 -0.5
v 0.1 1.5 -0.5
v 0.2 1.5 -0.5
v -0.1 1.5 -0.8
v 0.1 1.5 -0.8
v -0.1 1.5 -1.4
v 0.1 1.5 -1.4
v -0.2 1.6 -0.5
v -0.1 1.6 -0.5
v 0.1 1.6 -0.5
v 0.2 1.6 -0.5
v -0.2 1.6 -0.8
v -0.1 1.6 -0.8
v 0.1 1.6 -0.8
v 0.2 1.6 -0.8
v -0.1 1.6 -1.4
v 0.1 1.6 -1.4
v -0.2 1.6 -1.7
v -0.1 1.6 -1.7
v 0.1 1.6 -1.7
v 0.2 1.6 -1.7
v -0.1 1.6 -2.4
v 0.1 1.6 -2.4
v -0.2 1.7 -1.7
v -0.1 1.7 -1.7
v 0.1 1.7 -1.7
v 0.2 1.7 -1.7
v -0.1 1.7 -2.4
v 0.1 1.7 -2.4
v -0.2 1.7 -2.6
v -0.1 1.7 -2.6
v 0.1 1.7 -2.6
v 0.2 1.7 -2.6
v -0.1 1.7 -3.5
v 0.1 1.7 -3.5
v -0.2 1.8 -1.7
v -0.1 1.8 -1.7
v 0.1 1.8 -1.7
v 0.2 1.8 -1.7
v -0.1 1.8 -2.4
v 0.1 1.8 -2.4
v -0.2 1.8 -2.6
v -0.1 1.8 -2.6
v 0.1 1.8 -2.6
v 0.2 1.8 -2.6
v -0.1 1.8 -3.5
v 0.1 1.8 -3.5
v -0.2 1.9 -0.5
v -0.1 1.9 -0.5
v 0.1 1.9 -0.5
v 0.2 1.9 -0.5
v -0.2 1.9 -0.8
v -0.1 1.9 -0.8
v 0.1 1.9 -0.8
v 0.2 1.9 -0.8
v -0.1 1.9 -1.4
v 0.1 1.9 -1.4
v -0.2 1.9 -1.7
v -0.1 1.9 -1.7
v 0.1 1.9 -1.7
v 0.2 1.9 -1.7
v -0.1 1.9 -2.4
v 0.1 1.9 -2.4
v -0.2 2 -0.3
v -0.1 2 -0.3
v 0.1 2 -0.3
v 0.2 2 -0.3
v -0.1 2 -0.4
v 0.1 2 -0.4
v -0.2 2 -0.5
v -0.1 2 -0.5
v 0.1 2 -0.5
v 0.2 2 -0.5
v -0.1 2 -0.8
v 0.1 2 -0.8
v -0.1 2 -1.4
v 0.1 2 -1.4
v -0.1 2.1 -0.3
v 0.1 2.1 -0.3
v -0.1 2.1 -0.4
v 0.1 2.1 -0.4

# faces
f 3/1/1 2/1/1 1/1/1
f 6/2/1 5/2/1 4/2/1
f 8/2/1 6/2/1 4/2/1
f 8/2/1 7/2/1 6/2/1
f 9/2/1 7/2/1 8/2/1
f 10/1/1 3/1/1 1/1/1
f 10/1/1 4/1/1 3/1/1
f 11/2/1 8/2/1 4/2/1
f 11/1/1 4/1/1 10/1/1
f 12/2/1 8/2/1 11/2/1
f 13/1/1 10/1/1 1/1/1
f 14/1/1 10/1/1 13/1/1
f 17/1/1 16/1/1 15/1/1
f 18/1/1 16/1/1 17/1/1
f 22/1/1 20/1/1 19/1/1
f 23/2/1 21/2/1 20/2/1
f 23/1/1 20/1/1 22/1/1
f 24/2/1 21/2/1 23/2/1
f 27/2/1 26/2/1 25/2/1
f 28/2/1 26/2/1 27/2/1
f 33/2/1 30/2/1 29/2/1
f 34/2/1 30/2/1 33/2/1
f 38/2/1 32/2/1 31/2/1
f 39/2/1 32/2/1 38/2/1
f 42/1/1 36/1/1 35/1/1
f 43/2/1 37/2/1 36/2/1
f 43/1/1 36/1/1 42/1/1
f 44/2/1 37/2/1 43/2/1
f 45/1/1 41/1/1 40/1/1
f 46/1/1 41/1/1 45/1/1
f 47/1/2 48/1/2 49/1/2
f 49/1/2 48/1/2 50/1/2
f 51/1/2 52/1/2 54/1/2
f 52/2/2 53/2/2 55/2/2
f 54/1/2 52/1/2 55/1/2
f 55/2/2 53/2/2 56/2/2
f 57/2/2 58/2/2 59/2/2
f 59/2/2 58/2/2 60/2/2
f 61/2/2 62/2/2 65/2/2
f 65/2/2 62/2/2 66/2/2
f 63/2/2 64/2/2 70/2/2
f 70/2/2 64/2/2 71/2/2
f 67/1/2 68/1/2 74/1/2
f 68/2/2 69/2/2 75/2/2
f 74/1/2 68/1/2 75/1/2
f 75/2/2 69/2/2 76/2/2
f 72/1/2 73/1/2 77/1/2
f 77/1/2 73/1/2 78/1/2
f 79/1/2 80/1/2 81/1/2
f 82/2/2 83/2/2 84/2/2
f 82/2/2 84/2/2 86/2/2
f 84/2/2 85/2/2 86/2/2
f 86/2/2 85/2/2 87/2/2
f 79/1/2 81/1/2 88/1/2
f 81/1/2 82/1/2 88/1/2
f 82/2/2 86/2/2 89/2/2
f 88/1/2 82/1/2 89/1/2
f 89/2/2 86/2/2 90/2/2
f 79/1/2 88/1/2 91/1/2
f 91/1/2 88/1/2 92/1/2
f 96/1/3 94/1/3 93/1/3
f 97/1/3 94/1/3 96/1/3
f 99/1/3 96/1/3 95/1/3
f 99/1/3 98/1/3 97/1/3
f 99/1/3 97/1/3 96/1/3
f 100/1/3 98/1/3 99/1/3
f 101/1/3 98/1/3 100/1/3
f 102/1/3 98/1/3 101/1/3
f 103/1/3 101/1/3 100/1/3
f 104/1/3 101/1/3 103/1/3
f 105/1/4 106/1/4 109/1/4
f 109/1/4 106/1/4 110/1/4
f 107/1/4 108/1/4 111/1/4
f 111/1/4 108/1/4 112/1/4
f 113/1/4 114/1/4 117/1/4
f 117/1/4 114/1/4 118/1/4
f 115/1/4 116/1/4 119/1/4
f 119/1/4 116/1/4 120/1/4
f 121/1/4 122/1/4 125/1/4
f 125/1/4 122/1/4 126/1/4
f 123/1/4 124/1/4 127/1/4
f 127/1/4 124/1/4 128/1/4
f 129/2/4 130/2/4 133/2/4
f 133/2/4 130/2/4 134/2/4
f 131/2/4 132/2/4 135/2/4
f 135/2/4 132/2/4 136/2/4
f 137/2/4 138/2/4 141/2/4
f 141/2/4 138/2/4 142/2/4
f 139/2/4 140/2/4 143/2/4
f 143/2/4 140/2/4 144/2/4
f 145/2/4 146/2/4 149/2/4
f 149/2/4 146/2/4 150/2/4
f 147/2/4 148/2/4 151/2/4
f 151/2/4 148/2/4 152/2/4
f 153/2/4 154/2/4 157/2/4
f 157/2/4 154/2/4 158/2/4
f 155/2/4 156/2/4 159/2/4
f 159/2/4 156/2/4 160/2/4
f 161/2/4 162/2/4 163/2/4
f 163/2/4 162/2/4 164/2/4
f 165/2/4 166/2/4 167/2/4
f 167/2/4 166/2/4 168/2/4
f 169/2/4 170/2/4 171/2/4
f 171/2/4 170/2/4 172/2/4
f 175/1/5 174/1/5 173/1/5
f 176/1/5 174/1/5 175/1/5
f 181/1/5 178/1/5 177/1/5
f 182/1/5 180/1/5 179/1/5
f 183/1/5 181/1/5 177/1/5
f 183/1/5 182/1/5 181/1/5
f 184/1/5 182/1/5 183/1/5
f 185/1/5 180/1/5 182/1/5
f 185/1/5 182/1/5 184/1/5
f 186/1/5 180/1/5 185/1/5
f 187/1/5 185/1/5 184/1/5
f 188/1/5 185/1/5 187/1/5
f 189/2/5 188/2/5 187/2/5
f 190/2/5 188/2/5 189/2/5
f 195/1/5 192/1/5 191/1/5
f 196/1/5 192/1/5 195/1/5
f 197/1/5 194/1/5 193/1/5
f 198/1/5 194/1/5 197/1/5
f 199/2/5 196/2/5 195/2/5
f 200/2/5 198/2/5 197/2/5
f 201/2/5 199/2/5 195/2/5
f 201/2/5 200/2/5 199/2/5
f 202/2/5 200/2/5 201/2/5
f 203/2/5 198/2/5 200/2/5
f 203/2/5 200/2/5 202/2/5
f 204/2/5 198/2/5 203/2/5
f 205/2/5 203/2/5 202/2/5
f 206/2/5 203/2/5 205/2/5
f 211/2/5 208/2/5 207/2/5
f 212/2/5 210/2/5 209/2/5
f 213/2/5 211/2/5 207/2/5
f 213/2/5 212/2/5 211/2/5
f 214/2/5 212/2/5 213/2/5
f 215/2/5 210/2/5 212/2/5
f 215/2/5 212/2/5 214/2/5
f 216/2/5 210/2/5 215/2/5
f 217/2/5 215/2/5 214/2/5
f 218/2/5 215/2/5 217/2/5
f 219/2/6 220/2/6 223/2/6
f 221/2/6 222/2/6 224/2/6
f 219/2/6 223/2/6 225/2/6
f 223/2/6 224/2/6 225/2/6
f 225/2/6 224/2/6 226/2/6
f 224/2/6 222/2/6 227/2/6
f 226/2/6 224/2/6 227/2/6
f 227/2/6 222/2/6 228/2/6
f 226/2/6 227/2/6 229/2/6
f 229/2/6 227/2/6 230/2/6
f 231/1/6 232/1/6 235/1/6
f 235/1/6 232/1/6 236/1/6
f 233/1/6 234/1/6 237/1/6
f 237/1/6 234/1/6 238/1/6
f 235/2/6 236/2/6 239/2/6
f 237/2/6 238/2/6 240/2/6
f 235/2/6 239/2/6 241/2/6
f 239/2/6 240/2/6 241/2/6
f 241/2/6 240/2/6 242/2/6
f 240/2/6 238/2/6 243/2/6
f 242/2/6 240/2/6 243/2/6
f 243/2/6 238/2/6 244/2/6
f 242/2/6 243/2/6 245/2/6
f 245/2/6 243/2/6 246/2/6
f 247/1/6 248/1/6 251/1/6
f 249/1/6 250/1/6 252/1/6
f 247/1/6 251/1/6 253/1/6
f 251/1/6 252/1/6 253/1/6
f 253/1/6 252/1/6 254/1/6
f 252/1/6 250/1/6 255/1/6
f 254/1/6 252/1/6 255/1/6
f 255/1/6 250/1/6 256/1/6
f 254/1/6 255/1/6 257/1/6
f 257/1/6 255/1/6 258/1/6
f 257/2/6 258/2/6 259/2/6
f 259/2/6 258/2/6 260/2/6
f 261/1/6 262/1/6 263/1/6
f 263/1/6 262/1/6 264/1/6
