# MagicaVoxel @ Ephtracy

# group
o 

# material
mtllib ratfrontleg.mtl
usemtl palette

# normals
vn -1 0 0
vn 1 0 0
vn 0 0 1
vn 0 0 -1
vn 0 -1 0
vn 0 1 0

# texcoords
vt 0.169922 0.5
vt 0.298828 0.5
vt 0.970703 0.5

# verts
v -0.6 0.1 2.7
v -0.6 0.1 2.6
v -0.6 0.1 2.4
v -0.6 0.2 2.7
v -0.6 0.2 2.6
v -0.6 0.2 2.4
v -0.6 0.2 2.3
v -0.6 0.3 2.6
v -0.6 0.3 2.4
v -0.6 0.3 2.3
v -0.6 0.3 2.2
v -0.6 0.4 2.4
v -0.6 0.4 2.3
v -0.6 0.4 2.2
v -0.6 0.4 2.1
v -0.6 0.6 2.5
v -0.6 0.6 2.3
v -0.6 0.6 2.2
v -0.6 0.6 2.1
v -0.6 0.7 2.5
v -0.6 0.7 2.3
v -0.6 0.7 2.2
v -0.6 1.2 2.5
v -0.6 1.2 2.3
v -0.5 0.1 2.8
v -0.5 0.1 2.7
v -0.5 0.2 2.8
v -0.5 0.2 2.7
v -0.5 0.7 2.6
v -0.5 0.7 2.5
v -0.5 0.7 2.3
v -0.5 0.7 2.2
v -0.5 1.2 2.6
v -0.5 1.2 2.5
v -0.5 1.2 2.3
v -0.5 1.2 2.2
v -0.4 0.1 2.8
v -0.4 0.1 2.7
v -0.4 0.2 2.8
v -0.4 0.2 2.7
v -0.4 0.7 2.6
v -0.4 0.7 2.5
v -0.4 0.7 2.3
v -0.4 0.7 2.2
v -0.4 1.2 2.6
v -0.4 1.2 2.5
v -0.4 1.2 2.3
v -0.4 1.2 2.2
v -0.3 0.1 2.7
v -0.3 0.1 2.6
v -0.3 0.1 2.4
v -0.3 0.2 2.7
v -0.3 0.2 2.6
v -0.3 0.2 2.4
v -0.3 0.2 2.3
v -0.3 0.3 2.6
v -0.3 0.3 2.4
v -0.3 0.3 2.3
v -0.3 0.3 2.2
v -0.3 0.4 2.4
v -0.3 0.4 2.3
v -0.3 0.4 2.2
v -0.3 0.4 2.1
v -0.3 0.6 2.5
v -0.3 0.6 2.3
v -0.3 0.6 2.2
v -0.3 0.6 2.1
v -0.3 0.7 2.5
v -0.3 0.7 2.3
v -0.3 0.7 2.2
v -0.3 1.2 2.5
v -0.3 1.2 2.3
v -0.5 0.1 2.8
v -0.5 0.2 2.8
v -0.4 0.1 2.8
v -0.4 0.2 2.8
v -0.6 0.1 2.7
v -0.6 0.2 2.7
v -0.5 0.1 2.7
v -0.5 0.2 2.7
v -0.4 0.1 2.7
v -0.4 0.2 2.7
v -0.3 0.1 2.7
v -0.3 0.2 2.7
v -0.6 0.2 2.6
v -0.6 0.3 2.6
v -0.5 0.2 2.6
v -0.5 0.7 2.6
v -0.5 1.2 2.6
v -0.4 0.2 2.6
v -0.4 0.7 2.6
v -0.4 1.2 2.6
v -0.3 0.2 2.6
v -0.3 0.3 2.6
v -0.6 0.6 2.5
v -0.6 0.7 2.5
v -0.6 1.2 2.5
v -0.5 0.7 2.5
v -0.5 1.2 2.5
v -0.4 0.7 2.5
v -0.4 1.2 2.5
v -0.3 0.6 2.5
v -0.3 0.7 2.5
v -0.3 1.2 2.5
v -0.6 0.3 2.4
v -0.6 0.4 2.4
v -0.3 0.3 2.4
v -0.3 0.4 2.4
v -0.6 0.4 2.3
v -0.6 0.6 2.3
v -0.3 0.4 2.3
v -0.3 0.6 2.3
v -0.6 0.1 2.4
v -0.6 0.2 2.4
v -0.3 0.1 2.4
v -0.3 0.2 2.4
v -0.6 0.2 2.3
v -0.6 0.3 2.3
v -0.6 0.7 2.3
v -0.6 1.2 2.3
v -0.5 0.7 2.3
v -0.5 1.2 2.3
v -0.4 0.7 2.3
v -0.4 1.2 2.3
v -0.3 0.2 2.3
v -0.3 0.3 2.3
v -0.3 0.7 2.3
v -0.3 1.2 2.3
v -0.6 0.3 2.2
v -0.6 0.4 2.2
v -0.6 0.6 2.2
v -0.6 0.7 2.2
v -0.5 0.7 2.2
v -0.5 1.2 2.2
v -0.4 0.7 2.2
v -0.4 1.2 2.2
v -0.3 0.3 2.2
v -0.3 0.4 2.2
v -0.3 0.6 2.2
v -0.3 0.7 2.2
v -0.6 0.4 2.1
v -0.6 0.6 2.1
v -0.3 0.4 2.1
v -0.3 0.6 2.1
v -0.5 0.1 2.8
v -0.4 0.1 2.8
v -0.6 0.1 2.7
v -0.5 0.1 2.7
v -0.4 0.1 2.7
v -0.3 0.1 2.7
v -0.6 0.1 2.6
v -0.5 0.1 2.6
v -0.4 0.1 2.6
v -0.3 0.1 2.6
v -0.6 0.1 2.4
v -0.3 0.1 2.4
v -0.6 0.2 2.4
v -0.3 0.2 2.4
v -0.6 0.2 2.3
v -0.3 0.2 2.3
v -0.6 0.3 2.3
v -0.3 0.3 2.3
v -0.6 0.3 2.2
v -0.3 0.3 2.2
v -0.6 0.4 2.2
v -0.3 0.4 2.2
v -0.6 0.4 2.1
v -0.3 0.4 2.1
v -0.6 0.6 2.5
v -0.3 0.6 2.5
v -0.6 0.6 2.3
v -0.3 0.6 2.3
v -0.5 0.7 2.6
v -0.4 0.7 2.6
v -0.5 0.7 2.5
v -0.4 0.7 2.5
v -0.5 0.2 2.8
v -0.4 0.2 2.8
v -0.6 0.2 2.7
v -0.5 0.2 2.7
v -0.4 0.2 2.7
v -0.3 0.2 2.7
v -0.6 0.2 2.6
v -0.5 0.2 2.6
v -0.4 0.2 2.6
v -0.3 0.2 2.6
v -0.6 0.3 2.6
v -0.3 0.3 2.6
v -0.6 0.3 2.4
v -0.3 0.3 2.4
v -0.6 0.4 2.4
v -0.3 0.4 2.4
v -0.6 0.4 2.3
v -0.3 0.4 2.3
v -0.6 0.6 2.2
v -0.3 0.6 2.2
v -0.6 0.6 2.1
v -0.3 0.6 2.1
v -0.6 0.7 2.3
v -0.5 0.7 2.3
v -0.4 0.7 2.3
v -0.3 0.7 2.3
v -0.6 0.7 2.2
v -0.5 0.7 2.2
v -0.4 0.7 2.2
v -0.3 0.7 2.2
v -0.5 1.2 2.6
v -0.4 1.2 2.6
v -0.6 1.2 2.5
v -0.5 1.2 2.5
v -0.4 1.2 2.5
v -0.3 1.2 2.5
v -0.6 1.2 2.3
v -0.5 1.2 2.3
v -0.4 1.2 2.3
v -0.3 1.2 2.3
v -0.5 1.2 2.2
v -0.4 1.2 2.2

# faces
f 4/3/1 2/3/1 1/3/1
f 5/2/1 3/2/1 2/2/1
f 5/3/1 2/3/1 4/3/1
f 6/2/1 3/2/1 5/2/1
f 8/2/1 7/2/1 6/2/1
f 8/2/1 6/2/1 5/2/1
f 9/2/1 7/2/1 8/2/1
f 10/2/1 7/2/1 9/2/1
f 12/2/1 11/2/1 10/2/1
f 12/2/1 10/2/1 9/2/1
f 13/2/1 11/2/1 12/2/1
f 14/2/1 11/2/1 13/2/1
f 17/2/1 15/2/1 14/2/1
f 17/2/1 14/2/1 13/2/1
f 18/2/1 15/2/1 17/2/1
f 19/2/1 15/2/1 18/2/1
f 20/2/1 17/2/1 16/2/1
f 20/2/1 18/2/1 17/2/1
f 21/2/1 18/2/1 20/2/1
f 22/2/1 18/2/1 21/2/1
f 23/1/1 21/1/1 20/1/1
f 24/1/1 21/1/1 23/1/1
f 27/3/1 26/3/1 25/3/1
f 28/3/1 26/3/1 27/3/1
f 33/1/1 30/1/1 29/1/1
f 34/1/1 30/1/1 33/1/1
f 35/1/1 32/1/1 31/1/1
f 36/1/1 32/1/1 35/1/1
f 37/3/2 38/3/2 39/3/2
f 39/3/2 38/3/2 40/3/2
f 41/1/2 42/1/2 45/1/2
f 45/1/2 42/1/2 46/1/2
f 43/1/2 44/1/2 47/1/2
f 47/1/2 44/1/2 48/1/2
f 49/3/2 50/3/2 52/3/2
f 50/2/2 51/2/2 53/2/2
f 52/3/2 50/3/2 53/3/2
f 53/2/2 51/2/2 54/2/2
f 54/2/2 55/2/2 56/2/2
f 53/2/2 54/2/2 56/2/2
f 56/2/2 55/2/2 57/2/2
f 57/2/2 55/2/2 58/2/2
f 58/2/2 59/2/2 60/2/2
f 57/2/2 58/2/2 60/2/2
f 60/2/2 59/2/2 61/2/2
f 61/2/2 59/2/2 62/2/2
f 62/2/2 63/2/2 65/2/2
f 61/2/2 62/2/2 65/2/2
f 65/2/2 63/2/2 66/2/2
f 66/2/2 63/2/2 67/2/2
f 64/2/2 65/2/2 68/2/2
f 65/2/2 66/2/2 68/2/2
f 68/2/2 66/2/2 69/2/2
f 69/2/2 66/2/2 70/2/2
f 68/1/2 69/1/2 71/1/2
f 71/1/2 69/1/2 72/1/2
f 75/3/3 74/3/3 73/3/3
f 76/3/3 74/3/3 75/3/3
f 79/3/3 78/3/3 77/3/3
f 80/3/3 78/3/3 79/3/3
f 83/3/3 82/3/3 81/3/3
f 84/3/3 82/3/3 83/3/3
f 87/2/3 86/2/3 85/2/3
f 90/2/3 86/2/3 87/2/3
f 91/1/3 89/1/3 88/1/3
f 92/1/3 89/1/3 91/1/3
f 93/2/3 86/2/3 90/2/3
f 94/2/3 86/2/3 93/2/3
f 98/2/3 96/2/3 95/2/3
f 98/1/3 97/1/3 96/1/3
f 99/1/3 97/1/3 98/1/3
f 100/2/3 98/2/3 95/2/3
f 102/2/3 100/2/3 95/2/3
f 103/1/3 101/1/3 100/1/3
f 103/2/3 100/2/3 102/2/3
f 104/1/3 101/1/3 103/1/3
f 107/2/3 106/2/3 105/2/3
f 108/2/3 106/2/3 107/2/3
f 111/2/3 110/2/3 109/2/3
f 112/2/3 110/2/3 111/2/3
f 113/2/4 114/2/4 115/2/4
f 115/2/4 114/2/4 116/2/4
f 119/1/4 120/1/4 121/1/4
f 121/1/4 120/1/4 122/1/4
f 117/2/4 118/2/4 125/2/4
f 125/2/4 118/2/4 126/2/4
f 123/1/4 124/1/4 127/1/4
f 127/1/4 124/1/4 128/1/4
f 131/2/4 132/2/4 133/2/4
f 131/2/4 133/2/4 135/2/4
f 133/1/4 134/1/4 135/1/4
f 135/1/4 134/1/4 136/1/4
f 129/2/4 130/2/4 137/2/4
f 137/2/4 130/2/4 138/2/4
f 131/2/4 135/2/4 139/2/4
f 139/2/4 135/2/4 140/2/4
f 141/2/4 142/2/4 143/2/4
f 143/2/4 142/2/4 144/2/4
f 148/3/5 146/3/5 145/3/5
f 149/3/5 146/3/5 148/3/5
f 151/3/5 148/3/5 147/3/5
f 152/2/5 149/2/5 148/2/5
f 152/3/5 148/3/5 151/3/5
f 153/3/5 150/3/5 149/3/5
f 153/2/5 149/2/5 152/2/5
f 154/3/5 150/3/5 153/3/5
f 155/2/5 152/2/5 151/2/5
f 155/2/5 153/2/5 152/2/5
f 155/2/5 154/2/5 153/2/5
f 156/2/5 154/2/5 155/2/5
f 159/2/5 158/2/5 157/2/5
f 160/2/5 158/2/5 159/2/5
f 163/2/5 162/2/5 161/2/5
f 164/2/5 162/2/5 163/2/5
f 167/2/5 166/2/5 165/2/5
f 168/2/5 166/2/5 167/2/5
f 171/2/5 170/2/5 169/2/5
f 172/2/5 170/2/5 171/2/5
f 175/1/5 174/1/5 173/1/5
f 176/1/5 174/1/5 175/1/5
f 177/3/6 178/3/6 180/3/6
f 180/3/6 178/3/6 181/3/6
f 179/3/6 180/3/6 183/3/6
f 180/2/6 181/2/6 184/2/6
f 183/3/6 180/3/6 184/3/6
f 181/3/6 182/3/6 185/3/6
f 184/2/6 181/2/6 185/2/6
f 185/3/6 182/3/6 186/3/6
f 187/2/6 188/2/6 189/2/6
f 189/2/6 188/2/6 190/2/6
f 191/2/6 192/2/6 193/2/6
f 193/2/6 192/2/6 194/2/6
f 195/2/6 196/2/6 197/2/6
f 197/2/6 196/2/6 198/2/6
f 199/2/6 200/2/6 203/2/6
f 203/2/6 200/2/6 204/2/6
f 201/2/6 202/2/6 205/2/6
f 205/2/6 202/2/6 206/2/6
f 207/1/6 208/1/6 210/1/6
f 210/1/6 208/1/6 211/1/6
f 209/1/6 210/1/6 213/1/6
f 211/1/6 212/1/6 213/1/6
f 210/1/6 211/1/6 213/1/6
f 213/1/6 212/1/6 214/1/6
f 214/1/6 212/1/6 215/1/6
f 215/1/6 212/1/6 216/1/6
f 214/1/6 215/1/6 217/1/6
f 217/1/6 215/1/6 218/1/6
