# MagicaVoxel @ Ephtracy

# group
o 

# material
mtllib spiderfang.mtl
usemtl palette

# normals
vn -1 0 0
vn 1 0 0
vn 0 0 1
vn 0 0 -1
vn 0 -1 0
vn 0 1 0

# texcoords
vt 0.447266 0.5
vt 0.744141 0.5

# verts
v -0.5 1.6 1.1
v -0.5 1.6 1
v -0.5 1.8 1.1
v -0.5 1.8 1
v -0.5 1.9 1
v -0.5 1.9 0.6
v -0.5 2.1 1.1
v -0.5 2.1 0.6
v 0.1 1.7 1.1
v 0.1 1.7 1
v 0.1 1.9 1.1
v 0.1 1.9 1
v 0.1 2 1
v 0.1 2 0.6
v 0.1 2.1 1.1
v 0.1 2.1 0.6
v 0.2 1.6 1.1
v 0.2 1.6 1
v 0.2 1.7 1.1
v 0.2 1.7 1
v 0.2 1.9 1
v 0.2 1.9 0.6
v 0.2 2 1
v 0.2 2 0.6
v -0.4 1.6 1.1
v -0.4 1.6 1
v -0.4 1.7 1.1
v -0.4 1.7 1
v -0.4 1.9 1
v -0.4 1.9 0.6
v -0.4 2 1
v -0.4 2 0.6
v -0.3 1.7 1.1
v -0.3 1.7 1
v -0.3 1.9 1.1
v -0.3 1.9 1
v -0.3 2 1
v -0.3 2 0.6
v -0.3 2.1 1.1
v -0.3 2.1 0.6
v 0.3 1.6 1.1
v 0.3 1.6 1
v 0.3 1.8 1.1
v 0.3 1.8 1
v 0.3 1.9 1
v 0.3 1.9 0.6
v 0.3 2.1 1.1
v 0.3 2.1 0.6
v -0.5 1.6 1.1
v -0.5 1.8 1.1
v -0.5 2.1 1.1
v -0.4 1.6 1.1
v -0.4 1.7 1.1
v -0.4 1.8 1.1
v -0.4 1.9 1.1
v -0.3 1.7 1.1
v -0.3 1.9 1.1
v -0.3 2.1 1.1
v 0.1 1.7 1.1
v 0.1 1.9 1.1
v 0.1 2.1 1.1
v 0.2 1.6 1.1
v 0.2 1.7 1.1
v 0.2 1.8 1.1
v 0.2 1.9 1.1
v 0.3 1.6 1.1
v 0.3 1.8 1.1
v 0.3 2.1 1.1
v -0.5 1.6 1
v -0.5 1.8 1
v -0.5 1.9 1
v -0.4 1.6 1
v -0.4 1.7 1
v -0.4 1.8 1
v -0.4 1.9 1
v -0.4 2 1
v -0.3 1.7 1
v -0.3 1.9 1
v -0.3 2 1
v 0.1 1.7 1
v 0.1 1.9 1
v 0.1 2 1
v 0.2 1.6 1
v 0.2 1.7 1
v 0.2 1.8 1
v 0.2 1.9 1
v 0.2 2 1
v 0.3 1.6 1
v 0.3 1.8 1
v 0.3 1.9 1
v -0.5 1.9 0.6
v -0.5 2.1 0.6
v -0.4 1.9 0.6
v -0.4 2 0.6
v -0.3 2 0.6
v -0.3 2.1 0.6
v 0.1 2 0.6
v 0.1 2.1 0.6
v 0.2 1.9 0.6
v 0.2 2 0.6
v 0.3 1.9 0.6
v 0.3 2.1 0.6
v -0.5 1.6 1.1
v -0.4 1.6 1.1
v 0.2 1.6 1.1
v 0.3 1.6 1.1
v -0.5 1.6 1
v -0.4 1.6 1
v 0.2 1.6 1
v 0.3 1.6 1
v -0.4 1.7 1.1
v -0.3 1.7 1.1
v 0.1 1.7 1.1
v 0.2 1.7 1.1
v -0.4 1.7 1
v -0.3 1.7 1
v 0.1 1.7 1
v 0.2 1.7 1
v -0.5 1.9 1
v -0.4 1.9 1
v 0.2 1.9 1
v 0.3 1.9 1
v -0.5 1.9 0.6
v -0.4 1.9 0.6
v 0.2 1.9 0.6
v 0.3 1.9 0.6
v -0.4 2 1
v -0.3 2 1
v 0.1 2 1
v 0.2 2 1
v -0.4 2 0.6
v -0.3 2 0.6
v 0.1 2 0.6
v 0.2 2 0.6
v -0.5 2.1 1.1
v -0.3 2.1 1.1
v 0.1 2.1 1.1
v 0.3 2.1 1.1
v -0.5 2.1 0.6
v -0.3 2.1 0.6
v 0.1 2.1 0.6
v 0.3 2.1 0.6

# faces
f 3/2/1 2/2/1 1/2/1
f 4/2/1 2/2/1 3/2/1
f 5/1/1 4/1/1 3/1/1
f 7/1/1 5/1/1 3/1/1
f 7/1/1 6/1/1 5/1/1
f 8/1/1 6/1/1 7/1/1
f 11/2/1 10/2/1 9/2/1
f 12/2/1 10/2/1 11/2/1
f 13/1/1 12/1/1 11/1/1
f 15/1/1 13/1/1 11/1/1
f 15/1/1 14/1/1 13/1/1
f 16/1/1 14/1/1 15/1/1
f 19/2/1 18/2/1 17/2/1
f 20/2/1 18/2/1 19/2/1
f 23/1/1 22/1/1 21/1/1
f 24/1/1 22/1/1 23/1/1
f 25/2/2 26/2/2 27/2/2
f 27/2/2 26/2/2 28/2/2
f 29/1/2 30/1/2 31/1/2
f 31/1/2 30/1/2 32/1/2
f 33/2/2 34/2/2 35/2/2
f 35/2/2 34/2/2 36/2/2
f 35/1/2 36/1/2 37/1/2
f 35/1/2 37/1/2 39/1/2
f 37/1/2 38/1/2 39/1/2
f 39/1/2 38/1/2 40/1/2
f 41/2/2 42/2/2 43/2/2
f 43/2/2 42/2/2 44/2/2
f 43/1/2 44/1/2 45/1/2
f 43/1/2 45/1/2 47/1/2
f 45/1/2 46/1/2 47/1/2
f 47/1/2 46/1/2 48/1/2
f 52/2/3 50/2/3 49/2/3
f 53/2/3 50/2/3 52/2/3
f 54/1/3 51/1/3 50/1/3
f 54/2/3 50/2/3 53/2/3
f 55/1/3 51/1/3 54/1/3
f 56/2/3 54/2/3 53/2/3
f 56/2/3 55/2/3 54/2/3
f 57/1/3 51/1/3 55/1/3
f 57/2/3 55/2/3 56/2/3
f 58/1/3 51/1/3 57/1/3
f 63/2/3 60/2/3 59/2/3
f 64/2/3 60/2/3 63/2/3
f 65/1/3 61/1/3 60/1/3
f 65/2/3 60/2/3 64/2/3
f 66/2/3 64/2/3 63/2/3
f 66/2/3 63/2/3 62/2/3
f 67/1/3 65/1/3 64/1/3
f 67/2/3 64/2/3 66/2/3
f 68/1/3 61/1/3 65/1/3
f 68/1/3 65/1/3 67/1/3
f 69/2/4 70/2/4 72/2/4
f 72/2/4 70/2/4 73/2/4
f 70/1/4 71/1/4 74/1/4
f 73/2/4 70/2/4 74/2/4
f 74/1/4 71/1/4 75/1/4
f 73/2/4 74/2/4 77/2/4
f 74/2/4 75/2/4 77/2/4
f 75/1/4 76/1/4 78/1/4
f 77/2/4 75/2/4 78/2/4
f 78/1/4 76/1/4 79/1/4
f 80/2/4 81/2/4 84/2/4
f 84/2/4 81/2/4 85/2/4
f 81/1/4 82/1/4 86/1/4
f 85/2/4 81/2/4 86/2/4
f 86/1/4 82/1/4 87/1/4
f 84/2/4 85/2/4 88/2/4
f 83/2/4 84/2/4 88/2/4
f 85/1/4 86/1/4 89/1/4
f 88/2/4 85/2/4 89/2/4
f 89/1/4 86/1/4 90/1/4
f 91/1/4 92/1/4 93/1/4
f 93/1/4 92/1/4 94/1/4
f 94/1/4 92/1/4 95/1/4
f 95/1/4 92/1/4 96/1/4
f 97/1/4 98/1/4 100/1/4
f 99/1/4 100/1/4 101/1/4
f 100/1/4 98/1/4 102/1/4
f 101/1/4 100/1/4 102/1/4
f 107/2/5 104/2/5 103/2/5
f 108/2/5 104/2/5 107/2/5
f 109/2/5 106/2/5 105/2/5
f 110/2/5 106/2/5 109/2/5
f 115/2/5 112/2/5 111/2/5
f 116/2/5 112/2/5 115/2/5
f 117/2/5 114/2/5 113/2/5
f 118/2/5 114/2/5 117/2/5
f 123/1/5 120/1/5 119/1/5
f 124/1/5 120/1/5 123/1/5
f 125/1/5 122/1/5 121/1/5
f 126/1/5 122/1/5 125/1/5
f 131/1/5 128/1/5 127/1/5
f 132/1/5 128/1/5 131/1/5
f 133/1/5 130/1/5 129/1/5
f 134/1/5 130/1/5 133/1/5
f 135/1/6 136/1/6 139/1/6
f 139/1/6 136/1/6 140/1/6
f 137/1/6 138/1/6 141/1/6
f 141/1/6 138/1/6 142/1/6
